<?xml version="1.0" encoding="UTF-8"?>
<svg version="1.1" xmlns="http://www.w3.org/2000/svg" width="204" height="192">
<path d="M0 0 C67.32 0 134.64 0 204 0 C204 63.36 204 126.72 204 192 C136.68 192 69.36 192 0 192 C0 128.64 0 65.28 0 0 Z " fill="#1E75BB" transform="translate(0,0)"/>
<path d="M0 0 C1.60543465 2.45502598 2.94294871 4.77057929 4.25 7.375 C4.61351563 8.06078125 4.97703125 8.7465625 5.3515625 9.453125 C8 14.57078242 8 14.57078242 8 18 C6.948125 18.2475 5.89625 18.495 4.8125 18.75 C1.11020219 19.84199087 -1.29661353 21.14642539 -4 24 C-6.60429421 28.80068692 -7.77851507 33.55039453 -7 39 C-4.85129248 43.60437325 -2.37716748 47.31041516 2 50 C5.34211314 51.16070397 5.34211314 51.16070397 9.0625 52.0625 C10.05407104 52.31845947 10.05407104 52.31845947 11.06567383 52.57958984 C15.91574897 53.80456351 20.7822153 54.76291413 25.73046875 55.5078125 C28.87597171 56.18996977 31.24017246 57.01626551 33.24853516 59.61645508 C33.59190918 60.24447021 33.9352832 60.87248535 34.2890625 61.51953125 C34.67320313 62.21240234 35.05734375 62.90527344 35.453125 63.61914062 C35.83984375 64.34294922 36.2265625 65.06675781 36.625 65.8125 C37.21667969 66.88081055 37.21667969 66.88081055 37.8203125 67.97070312 C39.79262025 71.57216372 41.58740511 75.13435053 43 79 C18.05477916 77.70502952 18.05477916 77.70502952 13.0625 73.5625 C12.381875 72.716875 11.70125 71.87125 11 71 C6.75855553 68.10340377 3.74866148 67 -1.390625 67 C-11.56008584 67 -11.56008584 67 -15.62109375 64.1796875 C-17.6754761 61.8884104 -19.36660691 59.60585134 -21 57 C-21.43828125 56.33613281 -21.8765625 55.67226562 -22.328125 54.98828125 C-27.985377 45.8052067 -27.4575252 32.61218751 -25.19921875 22.3671875 C-21.51978567 12.68180695 -14.54045743 5.10816933 -5.82421875 -0.35546875 C-3.44915156 -1.19462525 -2.34582403 -0.86511654 0 0 Z " fill="#F8FBFC" transform="translate(40,50)"/>
<path d="M0 0 C6.01376984 -0.32802381 11.75095177 0.22176509 17.6875 1.125 C18.41187256 1.2175708 19.13624512 1.3101416 19.88256836 1.40551758 C24.89846233 2.23546082 27.27556003 3.81733864 30.64331055 7.58300781 C35.40815199 12.55963904 43.39511552 13.15863747 49.875 13.4375 C55.63870095 13.74407984 55.63870095 13.74407984 59 16.125 C59.66 17.07375 60.32 18.0225 61 19 C61.63808594 19.79470703 61.63808594 19.79470703 62.2890625 20.60546875 C69.28524976 29.54504136 70.17619785 39.01490965 69 50 C66.51357697 62.30568685 59.76101023 70.43965389 50 78 C47.74903599 79.43401182 46.67450715 80.07969943 44.01025391 79.76489258 C41.44805123 78.78998597 41.03433996 77.91206428 39.859375 75.47265625 C39.51132813 74.76302734 39.16328125 74.05339844 38.8046875 73.32226562 C38.45664063 72.57654297 38.10859375 71.83082031 37.75 71.0625 C37.38648438 70.32064453 37.02296875 69.57878906 36.6484375 68.81445312 C34 63.32342575 34 63.32342575 34 61 C35.546875 60.6596875 35.546875 60.6596875 37.125 60.3125 C41.43786084 59.06150791 43.85497103 57.21816918 47 54 C49.89062901 48.21874199 49.82674098 41.86603538 48.0625 35.75 C41.70043422 27.26724563 29.84923819 25.8353239 20 24 C19.04738281 23.89945313 18.09476563 23.79890625 17.11328125 23.6953125 C14.71976793 23.42710897 13.10456606 23.17892541 11 22 C8.43071118 18.58219317 6.76531664 14.87757413 5 11 C4.05712143 9.30381633 3.10011812 7.61535687 2.125 5.9375 C0 2.24213836 0 2.24213836 0 0 Z " fill="#F9FBFC" transform="translate(121,65)"/>
<path d="M0 0 C0.53496094 0.43957031 1.06992188 0.87914062 1.62109375 1.33203125 C1.09977658 6.28928357 -1.23093837 9.61411118 -3.94140625 13.64453125 C-4.36615234 14.28970703 -4.79089844 14.93488281 -5.22851562 15.59960938 C-6.27157018 17.18177079 -7.32428497 18.75755626 -8.37890625 20.33203125 C-8.92160156 19.91050781 -9.46429688 19.48898438 -10.0234375 19.0546875 C-11.09658203 18.23291016 -11.09658203 18.23291016 -12.19140625 17.39453125 C-12.89910156 16.84925781 -13.60679688 16.30398437 -14.3359375 15.7421875 C-18.28484168 13.01646205 -21.69492403 12.88593771 -26.37890625 13.33203125 C-31.28757484 15.06012095 -35.28889671 16.92143066 -38.50390625 21.08203125 C-40.63517813 28.99818393 -38.98609359 35.78376156 -36.44140625 43.39453125 C-31.46735628 58.54749553 -31.46735628 58.54749553 -33.1640625 63.73046875 C-33.79634766 64.70886719 -33.79634766 64.70886719 -34.44140625 65.70703125 C-34.9003125 66.44566406 -35.35921875 67.18429688 -35.83203125 67.9453125 C-36.3425 68.73292969 -36.85296875 69.52054687 -37.37890625 70.33203125 C-38.48730167 72.18367313 -39.59152164 74.03782128 -40.69140625 75.89453125 C-41.58575342 77.37459697 -42.48103889 78.85409837 -43.37890625 80.33203125 C-46.37890625 79.33203125 -46.37890625 79.33203125 -47.56152344 77.27832031 C-48.76434884 74.38458173 -49.96186313 71.49043525 -51.12890625 68.58203125 C-51.55300781 67.57914062 -51.97710937 66.57625 -52.4140625 65.54296875 C-52.80980469 64.57101563 -53.20554687 63.5990625 -53.61328125 62.59765625 C-54.15807129 61.26395996 -54.15807129 61.26395996 -54.71386719 59.90332031 C-55.47570467 56.95777244 -55.15760194 55.24179875 -54.37890625 52.33203125 C-53.43364023 43.41781369 -54.7657653 37.88932941 -59.09375 30.11328125 C-61.06511003 25.84699449 -60.77850721 22.72959403 -59.37890625 18.33203125 C-59.17136719 17.67847656 -58.96382812 17.02492188 -58.75 16.3515625 C-55.27792534 7.94813542 -47.85667233 1.15238967 -39.75390625 -2.66796875 C-37.97673473 -3.37236586 -36.18554536 -4.04301353 -34.37890625 -4.66796875 C-33.34636719 -5.03341797 -33.34636719 -5.03341797 -32.29296875 -5.40625 C-21.16171153 -8.74562716 -9.5281981 -6.68069062 0 0 Z " fill="#F9FBFC" transform="translate(109.37890625,15.66796875)"/>
<path d="M0 0 C7.26 0 14.52 0 22 0 C21.67 1.32 21.34 2.64 21 4 C20.3908412 9.40253948 20.61216339 13.82449509 23.6796875 18.42578125 C26.63373212 21.94791137 29.60643271 24.47048781 34.171875 25.48046875 C40.31368872 25.87227411 44.33723248 23.83781634 49 20 C52.92367324 16.49079928 56.75816651 12.96127208 59.58789062 8.4921875 C64.3254192 1.43842267 64.3254192 1.43842267 69.08007812 0.19360352 C72.60275902 0.01670808 75.98236374 0.12374027 79.5 0.375 C80.70398438 0.42011719 81.90796875 0.46523437 83.1484375 0.51171875 C86.10416983 0.62900972 89.04943621 0.79279749 92 1 C80.56647596 21.76647041 80.56647596 21.76647041 69.48828125 25.03515625 C63.85903267 27.21792611 58.67115607 32.06296822 55.6953125 37.29296875 C55.38335937 38.00066406 55.07140625 38.70835937 54.75 39.4375 C53 43 53 43 50.390625 44.1875 C39.13390658 46.88496248 29.12012904 45.85844555 19.09375 40.109375 C9.72750406 33.72329822 3.98350274 25.84331649 0.34765625 15.06640625 C-0.4813771 10.13878106 -0.04969395 4.96939495 0 0 Z " fill="#FAFCFD" transform="translate(28,128)"/>
<path d="M0 0 C3.28122603 2.67213617 4.56992593 6.18655203 6.125 10 C6.52138672 10.94359375 6.52138672 10.94359375 6.92578125 11.90625 C9.31726225 17.63609281 10.06722667 21.96364487 9.9375 28.125 C9.763355 39.16857848 9.763355 39.16857848 14.125 49.0625 C16.55633885 52.87159753 16.93764898 55.67960202 16 60 C11.51306325 72.29813685 4.49540097 78.33028079 -7.125 83.77734375 C-16.17479117 87.62596418 -25.9957304 88.83785313 -35.375 85.25 C-39.20882807 83.51859377 -42.61688232 81.49282355 -46 79 C-45.46411411 74.08301189 -43.21674849 70.72079466 -40.5625 66.6875 C-40.15451172 66.04232422 -39.74652344 65.39714844 -39.32617188 64.73242188 C-38.27686704 63.11481492 -37.14441059 61.55177876 -36 60 C-35.34 60 -34.68 60 -34 60 C-33.38125 60.78375 -32.7625 61.5675 -32.125 62.375 C-29.5712796 65.52959578 -27.70597534 66.72437473 -23.703125 67.37109375 C-17.22189342 67.5465411 -12.87409816 66.39487029 -8 62 C-4.09342077 56.87261476 -4.29247245 51.17548501 -5 45 C-6.43187587 38.63376758 -8.35045253 32.478635 -10.8125 26.4375 C-12.13478864 22.60982236 -12.17982725 21.76817073 -11 18 C-9.46918067 14.99950518 -7.74745165 12.12844119 -6 9.25 C-5.5359375 8.47011719 -5.071875 7.69023438 -4.59375 6.88671875 C-1.17911255 1.17911255 -1.17911255 1.17911255 0 0 Z " fill="#FAFCFC" transform="translate(138,98)"/>
<path d="M0 0 C4.18705662 2.46081398 8.23025048 5.11999701 11.671875 8.5703125 C11.671875 9.2303125 11.671875 9.8903125 11.671875 10.5703125 C12.661875 10.9003125 13.651875 11.2303125 14.671875 11.5703125 C15.98828125 13.42578125 15.98828125 13.42578125 17.234375 15.7578125 C17.64816406 16.51449219 18.06195313 17.27117188 18.48828125 18.05078125 C21.09790148 23.60591343 21.94948655 28.33950009 21.796875 34.4453125 C21.755625 36.7965625 21.714375 39.1478125 21.671875 41.5703125 C14.741875 41.5703125 7.811875 41.5703125 0.671875 41.5703125 C1.001875 39.9203125 1.331875 38.2703125 1.671875 36.5703125 C2.21366975 30.71892924 1.17880289 27.14753657 -2.328125 22.5703125 C-6.41253022 18.69536396 -10.04032833 16.92228122 -15.578125 16.0703125 C-26.0005265 17.45996603 -32.85802903 27.04147355 -39.328125 34.5703125 C-39.99714844 35.67632812 -40.66617188 36.78234375 -41.35546875 37.921875 C-46.09140184 42.14127399 -51.03970193 41.21190746 -57.140625 40.9453125 C-58.31044922 40.91824219 -59.48027344 40.89117187 -60.68554688 40.86328125 C-63.56828635 40.79268355 -66.44726071 40.69411824 -69.328125 40.5703125 C-67.20455281 35.03828411 -64.06078302 31.12992118 -60.328125 26.5703125 C-59.46960938 25.45462891 -59.46960938 25.45462891 -58.59375 24.31640625 C-55.16681852 20.04846177 -52.59645889 17.92884989 -47.37890625 16.328125 C-40.49137071 13.78301663 -36.42242155 8.99692842 -33.328125 2.5703125 C-33.01875 1.8071875 -32.709375 1.0440625 -32.390625 0.2578125 C-27.00733047 -8.29212587 -7.11631921 -3.44020956 0 0 Z " fill="#FAFCFC" transform="translate(153.328125,24.4296875)"/>
<path d="M0 0 C4.95520521 2.57289501 8.49116963 5.98233926 11 11 C11.66360455 16.53003789 10.56339646 19.80962865 7.48046875 24.265625 C4.80395732 27.40116874 2.08853541 28.6693501 -1.94921875 29.30859375 C-5.69138631 29.54381571 -7.8169068 29.08802558 -11.25 27.4375 C-15.59058404 23.59016414 -17.72602924 20.23090475 -18.4375 14.4375 C-17.705503 8.68609498 -15.41917058 4.72867517 -11 1 C-7.27200105 -0.24266632 -3.87217006 -0.52902513 0 0 Z " fill="#F8FBFC" transform="translate(106,83)"/>
<path d="M0 0 C-1.47721422 3.45201639 -3.43794001 5.64961936 -6.125 8.25 C-6.84945312 8.95640625 -7.57390625 9.6628125 -8.3203125 10.390625 C-8.87460938 10.92171875 -9.42890625 11.4528125 -10 12 C-10.33 11.01 -10.66 10.02 -11 9 C-9.54782324 7.49403892 -8.08807139 5.99537896 -6.625 4.5 C-5.40683594 3.24703125 -5.40683594 3.24703125 -4.1640625 1.96875 C-2 0 -2 0 0 0 Z " fill="#2F80BD" transform="translate(129,44)"/>
</svg>
