<?xml version="1.0" encoding="UTF-8"?>
<svg version="1.1" xmlns="http://www.w3.org/2000/svg" width="204" height="192">
<path d="M0 0 C1.23363281 0.00257812 2.46726562 0.00515625 3.73828125 0.0078125 C5.56939453 0.00394531 5.56939453 0.00394531 7.4375 0 C10.7386841 0.12134082 13.81218305 0.50598704 17.05078125 1.1328125 C16.94378906 1.6896875 16.83679688 2.2465625 16.7265625 2.8203125 C15.81046227 8.65183225 16.09588809 12.94759768 19.05078125 18.1328125 C22.30906549 21.97591699 25.28943434 24.63681927 30.3125 25.5390625 C37.5319144 25.81807368 41.69857108 23.90999182 47.05078125 19.1328125 C51.81621364 14.4229684 56.59960126 9.49545468 60.109375 3.78125 C64.72667688 -0.37616126 69.38718621 0.48537801 75.36328125 0.7578125 C77.04647461 0.79841797 77.04647461 0.79841797 78.76367188 0.83984375 C81.52800584 0.91042249 84.2884054 1.00896762 87.05078125 1.1328125 C85.87837201 4.2982498 84.67462955 6.92253323 82.58984375 9.578125 C82.11804688 10.18011719 81.64625 10.78210938 81.16015625 11.40234375 C80.6703125 12.01464844 80.18046875 12.62695312 79.67578125 13.2578125 C79.19367188 13.87785156 78.7115625 14.49789062 78.21484375 15.13671875 C74.53511037 19.78638185 71.25095812 22.79730377 65.67578125 25.0078125 C58.18854908 28.27273669 53.79640325 32.99971562 50.05078125 40.1328125 C49.72078125 41.1228125 49.39078125 42.1128125 49.05078125 43.1328125 C41.42728805 46.50133275 31.30727707 46.35140593 23.36328125 44.1328125 C11.59323985 39.47749762 3.49334739 30.6281083 -1.96875 19.5625 C-3.74310763 15.16548626 -4.08696129 11.09755165 -4.07421875 6.3828125 C-4.07679687 5.41859375 -4.079375 4.454375 -4.08203125 3.4609375 C-3.88258506 -0.03523683 -3.56078629 0.16035329 0 0 Z " fill="#0066CC" transform="translate(31.94921875,127.8671875)"/>
<path d="M0 0 C6.85847498 8.31641427 10.27008023 19.17847659 9.90234375 29.828125 C9.65551168 38.19895159 10.85965475 45.47420832 15.7265625 52.48828125 C17 55 17 55 16.62890625 57.578125 C11.80679522 69.6598977 6.31159017 77.57295785 -5.703125 83.28515625 C-15.2924186 87.1071747 -25.08281675 88.26852503 -35 85 C-39.60892054 82.93514722 -43.16403694 81.25394459 -46 77 C-42.7 71.72 -39.4 66.44 -36 61 C-32 63 -32 63 -29.375 65.125 C-24.80165054 67.6657497 -21.12319271 67.67696347 -16 67 C-11.08993035 65.33242918 -7.53873898 62.55361118 -5 58 C-1.2529832 47.80462872 -7.35126681 33.71922868 -11.4609375 24.33203125 C-12.76008835 18.7117917 -7.66981319 12.8572649 -4.875 8.1875 C-4.40707031 7.39923828 -3.93914062 6.61097656 -3.45703125 5.79882812 C-2.30784603 3.86397546 -1.15542997 1.93112772 0 0 Z " fill="#0066CC" transform="translate(138,98)"/>
<path d="M0 0 C10.99953293 -0.45614177 19.55186933 2.21348182 27.984375 9.3359375 C35.77381857 16.52051898 41.49424643 24.19580943 42.3515625 35.12109375 C42.35840868 38.50995497 42.27192385 41.85754743 42.046875 45.23828125 C34.95253267 45.33561217 28.06493357 45.33915318 21.046875 44.23828125 C21.211875 43.72265625 21.376875 43.20703125 21.546875 42.67578125 C22.76629965 36.73108608 22.19334924 32.30373751 19.32421875 27.03515625 C16.70247785 23.34708036 13.2375466 21.63517178 9.046875 20.23828125 C2.95705556 19.7307963 -1.06173036 20.35717466 -5.953125 24.23828125 C-12.49653054 30.05018527 -12.49653054 30.05018527 -17.52734375 37.11328125 C-19.44445114 40.51288731 -20.59883671 42.15810247 -23.953125 44.23828125 C-31.85910167 45.50094177 -40.00593041 44.84572204 -47.953125 44.23828125 C-47.43148546 40.79216575 -46.83837046 38.62626585 -44.51953125 36.01171875 C-44.03548828 35.45484375 -43.55144531 34.89796875 -43.05273438 34.32421875 C-42.54548828 33.75960937 -42.03824219 33.195 -41.515625 32.61328125 C-37.5229391 28.0945684 -37.5229391 28.0945684 -33.953125 23.23828125 C-31.37890625 22.09765625 -31.37890625 22.09765625 -28.265625 20.98828125 C-20.40964185 17.83085262 -16.21552116 13.9626713 -12.453125 6.42578125 C-10.75838568 3.23184945 -10.26966513 2.4031459 -6.953125 0.67578125 C-4.64409983 0.29930976 -2.33296627 0.18824199 0 0 Z " fill="#0066CC" transform="translate(132.953125,20.76171875)"/>
<path d="M0 0 C-0.50969434 4.74820521 -2.73419211 8.01771568 -5.4375 11.8125 C-5.84548828 12.40998047 -6.25347656 13.00746094 -6.67382812 13.62304688 C-7.72524958 15.12385238 -8.85706337 16.56765923 -10 18 C-10.66 18 -11.32 18 -12 18 C-13.33333333 16.66666667 -14.66666667 15.33333333 -16 14 C-20.28519462 11.45398478 -24.1305368 11.36033324 -29 12 C-33.33766183 13.34170208 -36.29632624 15.29632624 -39.5 18.5 C-44.08981512 29.20956861 -39.5443533 40.59248987 -36 51 C-35.59523438 51.88816406 -35.19046875 52.77632812 -34.7734375 53.69140625 C-33.75679826 56.72592034 -33.96109291 57.95282899 -35 61 C-36.51325231 64.01982523 -38.20519429 66.91398568 -39.9375 69.8125 C-40.39318359 70.60076172 -40.84886719 71.38902344 -41.31835938 72.20117188 C-41.75857422 72.94560547 -42.19878906 73.69003906 -42.65234375 74.45703125 C-43.05445068 75.13741455 -43.45655762 75.81779785 -43.87084961 76.51879883 C-44.42977905 77.25199341 -44.42977905 77.25199341 -45 78 C-45.66 78 -46.32 78 -47 78 C-48.12918033 75.62690978 -49.25342065 73.25168006 -50.375 70.875 C-50.69210938 70.20984375 -51.00921875 69.5446875 -51.3359375 68.859375 C-54.8123697 61.47195657 -56.19398314 55.84320974 -55.875 47.6875 C-55.7260328 40.65517441 -55.95841305 35.01812947 -60 29 C-62.26399146 25.60401281 -62.16657264 24.10780118 -61.52734375 20.171875 C-59.36370166 11.260875 -53.41468445 3.76443336 -45.71875 -1.0546875 C-28.98459489 -10.16040942 -16.18519634 -9.04953313 0 0 Z " fill="#0066CC" transform="translate(111,17)"/>
<path d="M0 0 C22.55120651 -0.73139048 22.55120651 -0.73139048 28.9375 4.9375 C29.40027344 5.44152344 29.86304688 5.94554688 30.33984375 6.46484375 C35.34395275 11.09217278 40.51170206 11.35963962 46.9375 11.6875 C56.68548065 12.48337324 56.68548065 12.48337324 60.375 16.625 C61.8125 18.7734375 61.8125 18.7734375 63 21 C63.4125 21.71414062 63.825 22.42828125 64.25 23.1640625 C69.36298714 32.64439283 69.65164174 45.14475962 66.875 55.5 C63.29262833 65.31403215 56.63348492 72.76596236 47.625 77.9375 C45 79 45 79 43 79 C40.03 73.39 37.06 67.78 34 62 C36 60 36 60 39.3125 58.6875 C43.11636215 57.07085859 45.48234359 55.38085289 48 52 C50.27280691 46.07409705 50.52478599 40.85732391 48.078125 34.96875 C45.46261513 30.19260153 42.78054558 28.59566561 37.765625 26.91796875 C32.57820658 25.48120452 27.54245323 24.18509439 22.19140625 23.54296875 C13.21657915 22.35469778 13.21657915 22.35469778 9.48828125 18.203125 C7.41535106 14.8772407 5.66110124 11.54757803 4 8 C3.16691011 6.39570689 2.33362731 4.79151392 1.5 3.1875 C1.005 2.135625 0.51 1.08375 0 0 Z " fill="#0066CC" transform="translate(121,66)"/>
<path d="M0 0 C1.07495117 1.55053711 1.07495117 1.55053711 2.04296875 3.52734375 C2.39423828 4.23697266 2.74550781 4.94660156 3.10742188 5.67773438 C3.64206055 6.79631836 3.64206055 6.79631836 4.1875 7.9375 C4.55552734 8.67935547 4.92355469 9.42121094 5.30273438 10.18554688 C8 15.70518321 8 15.70518321 8 18 C7.40832031 18.14695312 6.81664062 18.29390625 6.20703125 18.4453125 C0.25905534 20.13364498 -2.55779669 21.83669503 -6 27 C-7.79595488 32.38786463 -7.63509946 37.89623303 -6 43.3125 C0.38367302 51.89056062 10.72520182 52.70601058 20.62109375 54.3203125 C28.9522215 55.95386696 28.9522215 55.95386696 32.02099609 59.01782227 C33.54140243 61.28521495 34.79705296 63.55181271 36 66 C36.62648437 66.98871094 37.25296875 67.97742188 37.8984375 68.99609375 C38.38570313 69.80175781 38.87296875 70.60742188 39.375 71.4375 C39.87773438 72.26121094 40.38046875 73.08492188 40.8984375 73.93359375 C42 76 42 76 42 78 C32.97335464 78.44637257 21.66044593 78.80831472 13.875 73.5703125 C12.76941489 72.54150413 11.68116821 71.49366821 10.61328125 70.42578125 C5.02956236 65.49101758 -2.93976063 65.63152608 -9.984375 65.50390625 C-14.61333199 64.73041473 -16.93685884 62.38952309 -19.73046875 58.73828125 C-26.2451542 47.89211592 -27.56250667 37.34137696 -24.875 24.9375 C-21.60237923 13.27973109 -15.18547874 5.95357385 -4.8828125 -0.28125 C-3 -1 -3 -1 0 0 Z " fill="#0066CC" transform="translate(40,50)"/>
<path d="M0 0 C3.44078769 3.38384794 4.54263752 6.38596823 4.83984375 11.1875 C4.56117588 16.12875705 3.25999016 18.94431573 -0.2734375 22.37890625 C-3.83088159 25.22316346 -6.44208701 25.87652269 -10.91015625 25.5 C-15.29053026 24.75895928 -18.43054898 23.73256228 -21.13671875 19.9921875 C-23.52338417 15.85205361 -24.57393079 12.38417868 -23.6484375 7.64453125 C-21.82423994 2.80895993 -18.55185117 -0.40044727 -14.09765625 -2.875 C-8.87866938 -3.59133153 -4.41298008 -3.03223171 0 0 Z " fill="#0066CC" transform="translate(111.91015625,86.3125)"/>
</svg>
